<svg width="100" height="100" viewBox="0 0 100 100" fill="none" xmlns="http://www.w3.org/2000/svg">
<g clip-path="url(#clip0_1382_9241)">
<path d="M24.6962 82.7852H9.88107L17.439 69.6596V60.5342L2 87.3434H33.1159L24.6962 82.7852Z" fill="white" fill-opacity="0.33"/>
<path d="M85.5676 65.7538L82.5561 60.5251V69.6505L90.1185 82.7851H75.2271L66.8164 87.3433H97.9996L85.5676 65.7538Z" fill="white" fill-opacity="0.33"/>
<path d="M43.1426 25.0271L50.0004 13.1209L56.7998 24.9236L64.4341 29.0588L50.0004 4L35.5039 29.1668L43.1426 25.0271Z" fill="white" fill-opacity="0.33"/>
<path d="M20.8945 76.769V66.7976L23.5649 65.3307L20.8945 63.8683V53.861L23.5649 52.4166L20.8945 50.9857V40.9469L49.9997 25.2205L79.1049 40.9424V50.9677L76.4345 52.4166L79.1049 53.8655V63.1799C79.1049 63.6164 78.867 64.0213 78.4811 64.2283L76.4345 65.3352L79.1094 66.7437V76.814L49.9773 92.4999L20.9035 76.769H20.8945ZM51.1846 83.2665V89.1746L76.7307 75.3831V69.475L51.1846 83.2665ZM23.2687 75.3876L48.8149 89.1791V83.271L23.2687 69.4795V75.3876ZM24.5837 67.4861L49.9997 81.2057L75.4157 67.4861L73.9302 66.6852L49.9548 79.5633L26.0693 66.6852L24.5837 67.4861ZM51.1846 70.3479V76.256L76.7307 62.4644V56.5563L51.1846 70.3479ZM23.2687 62.4689L48.8149 76.2605V70.3524L23.2687 56.5608V62.4689ZM24.5837 54.5675L49.9997 68.287L75.4157 54.5675L73.9302 53.7665L49.9997 66.6537L26.0693 53.7665L24.5837 54.5675ZM51.1846 57.4293V63.3374L76.7307 49.5458V43.6377L51.1846 57.4293ZM23.2687 49.5503L48.8149 63.3419V57.4338L23.2687 43.6422V49.5503ZM24.5837 41.6488L49.9997 55.3684L75.4157 41.6488L49.9997 27.9293L24.5837 41.6488Z" fill="white"/>
</g>
<defs>
<clipPath id="clip0_1382_9241">
<rect width="96" height="88.5" fill="white" transform="translate(2 4)"/>
</clipPath>
</defs>
</svg>
