<svg width="160" height="160" viewBox="0 0 160 160" fill="none" xmlns="http://www.w3.org/2000/svg">
<rect width="160" height="160" rx="24" fill="url(#paint0_radial_1381_9227)"/>
<g clip-path="url(#clip0_1381_9227)">
<path d="M46.2616 120.047H26.5081L36.5853 102.546V90.3789L16 126.125H57.4878L46.2616 120.047Z" fill="white" fill-opacity="0.33"/>
<path d="M127.423 97.3385L123.408 90.3669V102.534L133.491 120.047H113.636L102.422 126.125H143.999L127.423 97.3385Z" fill="white" fill-opacity="0.33"/>
<path d="M70.8568 43.0361L80.0005 27.1612L89.0665 42.8981L99.2454 48.4118L80.0005 15L60.6719 48.5557L70.8568 43.0361Z" fill="white" fill-opacity="0.33"/>
<path d="M41.1934 112.025V98.7302L44.7539 96.7743L41.1934 94.8245V81.4814L44.7539 79.5555L41.1934 77.6476V64.2625L80.0003 43.2939L118.807 64.2565V77.6236L115.247 79.5555L118.807 81.4874V93.9065C118.807 94.4885 118.49 95.0285 117.975 95.3044L115.247 96.7803L118.813 98.6582V112.085L79.9704 133L41.2053 112.025H41.1934ZM81.5801 120.689V128.566L115.642 110.177V102.3L81.5801 120.689ZM44.359 110.183L78.4205 128.572V120.695L44.359 102.306V110.183ZM46.1123 99.6481L80.0003 117.941L113.888 99.6481L111.908 98.5802L79.9404 115.751L48.093 98.5802L46.1123 99.6481ZM81.5801 103.464V111.341L115.642 92.9526V85.0751L81.5801 103.464ZM44.359 92.9586L78.4205 111.347V103.47L44.359 85.0811V92.9586ZM46.1123 82.4233L80.0003 100.716L113.888 82.4233L111.908 81.3554L80.0003 98.5382L48.093 81.3554L46.1123 82.4233ZM81.5801 86.239V94.1165L115.642 75.7278V67.8503L81.5801 86.239ZM44.359 75.7338L78.4205 94.1225V86.245L44.359 67.8563V75.7338ZM46.1123 65.1985L80.0003 83.4912L113.888 65.1985L80.0003 46.9057L46.1123 65.1985Z" fill="white"/>
</g>
<defs>
<radialGradient id="paint0_radial_1381_9227" cx="0" cy="0" r="1" gradientUnits="userSpaceOnUse" gradientTransform="translate(158 1.5) rotate(0.148661) scale(225.435)">
<stop stop-color="#30D1B2"/>
<stop offset="0.765433" stop-color="#0E5FB5"/>
</radialGradient>
<clipPath id="clip0_1381_9227">
<rect width="128" height="118" fill="white" transform="translate(16 15)"/>
</clipPath>
</defs>
</svg>
